<svg width="123" height="22" viewBox="0 0 123 22" fill="none" xmlns="http://www.w3.org/2000/svg">
<path d="M15.504 9C15.576 9.36 15.6 9.744 15.6 10.104C15.6 10.512 15.552 10.896 15.504 11.28C15 14.808 12.144 17.568 8.616 18H8.568H1.2V7.872H4.56V14.64H8.352C10.224 14.352 11.736 12.912 12.12 11.064C12.192 10.752 12.216 10.44 12.216 10.104C12.216 9.816 12.192 9.504 12.144 9.216C11.904 8.112 11.304 7.128 10.392 6.456C9.84 6.048 9.216 5.76 8.544 5.616C8.328 5.568 8.088 5.544 7.848 5.52H1.2V2.16L8.256 2.184C9.96 2.304 11.616 3 12.912 4.152C14.328 5.4 15.24 7.128 15.504 9ZM15.1402 17.064L20.3483 7.68L22.4603 11.472L19.0282 17.688L18.8602 18H14.6362L15.1402 17.064ZM32.4683 17.064L32.9722 18H28.7483L28.5803 17.688L25.4123 11.976L23.8523 9.168L23.8043 9.072L21.6923 5.256L21.8602 4.944L23.2283 2.448L23.3963 2.112H24.2123L24.3563 2.448L25.7483 4.944L32.4683 17.064ZM42.2372 8.4C43.9412 8.4 45.5492 9.336 46.3892 10.824C46.8212 11.544 47.0372 12.36 47.0372 13.2C47.0372 14.04 46.8212 14.856 46.3892 15.6C45.5492 17.088 43.9412 18 42.2372 18H37.4612C35.3492 18 33.5732 16.584 33.0212 14.64C32.9252 14.256 32.8772 13.848 32.8772 13.416H36.1652C36.1652 13.992 36.5252 14.472 37.0292 14.64H42.2372C43.0292 14.64 43.6532 13.992 43.6532 13.2C43.6532 12.408 43.0292 11.76 42.2372 11.76H37.6772C36.3332 11.76 35.0612 11.184 34.1492 10.224C33.9092 9.96 33.6932 9.672 33.5012 9.336C33.0932 8.616 32.8772 7.8 32.8772 6.96C32.8772 6.12 33.0932 5.304 33.5012 4.584C34.3412 3.072 35.9492 2.16 37.6772 2.16H42.5252C44.6372 2.16 46.4132 3.576 46.9412 5.52C47.0612 5.904 47.1092 6.312 47.1092 6.744H43.8212C43.8212 6.168 43.4612 5.688 42.9332 5.52H37.6772C36.8852 5.52 36.2372 6.168 36.2372 6.96C36.2372 7.752 36.8852 8.4 37.6772 8.4H42.2372ZM61.8206 14.64H71.0606V18H58.4606V2.04H61.8206V14.64ZM72.729 17.064L77.937 7.68L80.049 11.472L76.617 17.688L76.449 18H72.225L72.729 17.064ZM90.057 17.064L90.561 18H86.337L86.169 17.688L83.001 11.976L81.441 9.168L81.393 9.072L79.281 5.256L79.449 4.944L80.817 2.448L80.985 2.112H81.801L81.945 2.448L83.337 4.944L90.057 17.064ZM95.6775 11.784V14.592H102.134C102.758 14.424 103.214 13.848 103.214 13.2C103.214 12.528 102.758 11.928 102.086 11.784H95.6775ZM105.974 10.848C106.382 11.568 106.598 12.36 106.598 13.2C106.598 14.016 106.382 14.832 105.974 15.528C105.134 17.064 103.526 18 101.774 18C101.582 18 101.414 18 101.222 17.976C101.03 18 100.862 18 100.67 18H92.3175V8.352H100.958C101.63 8.208 102.134 7.608 102.134 6.912C102.134 6.264 101.678 5.688 101.054 5.52H95.6775H92.3175V2.112H100.67C102.398 2.112 104.006 3.024 104.846 4.512C104.87 4.536 104.894 4.56 104.894 4.584C105.278 5.304 105.494 6.096 105.494 6.912C105.494 7.752 105.278 8.568 104.894 9.264C104.87 9.288 104.87 9.288 104.87 9.312C104.846 9.36 104.822 9.408 104.798 9.432C104.846 9.48 104.918 9.528 104.966 9.576C105.374 9.936 105.71 10.368 105.974 10.848ZM116.872 8.4C118.576 8.4 120.184 9.336 121.024 10.824C121.456 11.544 121.672 12.36 121.672 13.2C121.672 14.04 121.456 14.856 121.024 15.6C120.184 17.088 118.576 18 116.872 18H112.096C109.984 18 108.208 16.584 107.656 14.64C107.56 14.256 107.512 13.848 107.512 13.416H110.8C110.8 13.992 111.16 14.472 111.664 14.64H116.872C117.664 14.64 118.288 13.992 118.288 13.2C118.288 12.408 117.664 11.76 116.872 11.76H112.312C110.968 11.76 109.696 11.184 108.784 10.224C108.544 9.96 108.328 9.672 108.136 9.336C107.728 8.616 107.512 7.8 107.512 6.96C107.512 6.12 107.728 5.304 108.136 4.584C108.976 3.072 110.584 2.16 112.312 2.16H117.16C119.272 2.16 121.048 3.576 121.576 5.52C121.696 5.904 121.744 6.312 121.744 6.744H118.456C118.456 6.168 118.096 5.688 117.568 5.52H112.312C111.52 5.52 110.872 6.168 110.872 6.96C110.872 7.752 111.52 8.4 112.312 8.4H116.872Z" fill="black"/>
</svg>
