<svg width="256" height="92" viewBox="0 0 256 92" fill="none" xmlns="http://www.w3.org/2000/svg">
<path d="M0 0H32.125C39.8021 0 46.5885 1.46875 52.4792 4.39583C58.3802 7.32813 62.9635 11.4531 66.2292 16.7708C69.4896 22.0938 71.125 28.2865 71.125 35.3542C71.125 42.4375 69.4896 48.6406 66.2292 53.9583C62.9635 59.2813 58.3802 63.4063 52.4792 66.3333C46.5885 69.2656 39.8021 70.7292 32.125 70.7292H0V0ZM31.3125 57.2917C38.3802 57.2917 44.0208 55.3229 48.2292 51.375C52.4479 47.4323 54.5625 42.0938 54.5625 35.3542C54.5625 28.6198 52.4479 23.2865 48.2292 19.3542C44.0208 15.4115 38.3802 13.4375 31.3125 13.4375H16.3542V57.2917H31.3125Z" fill="#1B17FF"/>
<path d="M108.208 0C114.468 0 119.906 1.05208 124.52 3.14583C129.145 5.22917 132.697 8.19792 135.187 12.0417C137.687 15.875 138.937 20.4167 138.937 25.6667C138.937 30.849 137.687 35.375 135.187 39.25C132.697 43.125 129.145 46.0938 124.52 48.1458C119.906 50.2031 114.468 51.2292 108.208 51.2292H93.9577V70.7292H77.6035V0H108.208ZM107.291 37.8958C112.218 37.8958 115.963 36.8333 118.52 34.7083C121.072 32.5833 122.354 29.5729 122.354 25.6667C122.354 21.6979 121.072 18.6458 118.52 16.5208C115.963 14.3958 112.218 13.3333 107.291 13.3333H93.9577V37.8958H107.291Z" fill="#1B17FF"/>
<path d="M166.522 15.5625C174.938 15.5625 181.402 17.5729 185.917 21.5833C190.428 25.5833 192.688 31.625 192.688 39.7083V70.7292H177.938V63.9583C174.964 69.0156 169.438 71.5417 161.355 71.5417C157.188 71.5417 153.569 70.8333 150.501 69.4167C147.428 68 145.084 66.0521 143.459 63.5625C141.845 61.0625 141.042 58.2292 141.042 55.0625C141.042 50.0104 142.944 46.0365 146.751 43.1458C150.569 40.2448 156.449 38.7917 164.397 38.7917H176.917C176.917 35.3646 175.876 32.724 173.792 30.875C171.709 29.0156 168.574 28.0833 164.397 28.0833C161.49 28.0833 158.647 28.5417 155.855 29.4583C153.063 30.3646 150.688 31.5938 148.73 33.1458L143.063 22.125C146.032 20.0417 149.589 18.4323 153.73 17.2917C157.865 16.1406 162.131 15.5625 166.522 15.5625ZM165.292 60.9375C167.985 60.9375 170.376 60.3125 172.459 59.0625C174.553 57.8125 176.042 55.974 176.917 53.5417V48H166.105C159.647 48 156.417 50.1198 156.417 54.3542C156.417 56.3854 157.209 57.9896 158.792 59.1667C160.376 60.349 162.542 60.9375 165.292 60.9375Z" fill="#1B17FF"/>
<path d="M255.027 16.375L230.486 74.0625C227.986 80.3229 224.892 84.7344 221.215 87.2917C217.548 89.8594 213.121 91.1458 207.944 91.1458C205.111 91.1458 202.309 90.7083 199.548 89.8333C196.798 88.9583 194.538 87.7396 192.777 86.1875L198.548 74.9792C199.757 76.0469 201.152 76.8854 202.736 77.5C204.319 78.1094 205.887 78.4167 207.444 78.4167C209.595 78.4167 211.345 77.8854 212.694 76.8333C214.038 75.7917 215.257 74.0625 216.34 71.6458L216.527 71.125L192.986 16.375H209.257L224.507 53.25L239.882 16.375H255.027Z" fill="#1B17FF"/>
</svg>
