<svg width="176" height="43" viewBox="0 0 176 43" fill="none" xmlns="http://www.w3.org/2000/svg">
<path d="M28.9648 0.0753055C39.656 0.0753055 48.3757 9.71454 48.3757 21.5377C48.3757 33.3608 39.656 43 28.9648 43H0V0.0753055H28.9648ZM25.7802 28.6918C29.3439 28.6918 32.2252 25.4536 32.2252 21.5377C32.2252 17.6217 29.3439 14.3835 25.7802 14.3835H16.1505V28.6918H25.7802Z" fill="#1712FF"/>
<path d="M78.0786 0.0753055C89.2247 0.0753055 98.2478 8.1331 98.2478 18.0736C98.2478 28.014 89.2247 36.0718 78.0786 36.0718H66.0226V43H49.8721V0.0753055H78.0786ZM78.0786 21.5377C80.2775 21.5377 82.0973 19.8809 82.0973 17.9229C82.0973 15.965 80.2775 14.3835 78.0786 14.3835H66.0226V21.5377H78.0786Z" fill="#1712FF"/>
<path d="M119.753 37.4273L109.82 43V37.4273L106.787 42.9247H90.6364L114.824 0L139.012 42.9247H122.862L119.753 37.4273ZM119.753 37.4273L114.824 28.6165L109.82 37.4273H119.753Z" fill="#1712FF"/>
<path d="M159.849 28.6918V43H143.775V28.6918L127.624 0.0753055H143.775L151.812 14.3835L159.849 0.0753055H176L159.849 28.6918Z" fill="#1712FF"/>
</svg>
