<svg width="16" height="16" viewBox="0 0 16 16" fill="none" xmlns="http://www.w3.org/2000/svg">
<path d="M7.99989 13.601C9.16434 13.2015 10.1301 12.4883 10.8971 11.4614C11.6639 10.4344 12.1141 9.28043 12.2474 7.99954H7.99989V2.45604L3.70239 4.0607V7.29954C3.70239 7.4302 3.70517 7.54409 3.71073 7.6412C3.71628 7.73831 3.73017 7.85776 3.75239 7.99954H7.99989V13.601ZM7.99989 14.6952C7.93634 14.6952 7.87562 14.689 7.81773 14.6765C7.75973 14.6641 7.70028 14.6454 7.63939 14.6205C6.08162 14.0983 4.84678 13.1503 3.93489 11.7764C3.02289 10.4025 2.56689 8.90465 2.56689 7.28287V4.04404C2.56689 3.8037 2.63534 3.58481 2.77223 3.38737C2.90901 3.18993 3.08645 3.04831 3.30456 2.96254L7.60206 1.35787C7.73762 1.30809 7.87023 1.2832 7.99989 1.2832C8.12956 1.2832 8.26217 1.30809 8.39773 1.35787L12.6952 2.96254C12.9133 3.04831 13.0914 3.18993 13.2296 3.38737C13.3678 3.58481 13.4369 3.8037 13.4369 4.04404V7.28287C13.4369 8.90465 12.9802 10.4025 12.0669 11.7764C11.1537 13.1503 9.91817 14.0983 8.36039 14.6205C8.29951 14.6454 8.24006 14.6641 8.18206 14.6765C8.12417 14.689 8.06345 14.6952 7.99989 14.6952Z" fill="white"/>
</svg>
