<svg width="22" height="27" viewBox="0 0 22 27" fill="none" xmlns="http://www.w3.org/2000/svg">
<path d="M10.6667 23.6667C12.8222 23 14.6222 21.6836 16.0667 19.7173C17.5111 17.7511 18.3556 15.5564 18.6 13.1333H10.6667V2.63333L2.66667 5.63333V12.5333C2.66667 12.6889 2.68889 12.8889 2.73333 13.1333H10.6667V23.6667ZM10.6667 26.3333C10.5111 26.3333 10.3667 26.3222 10.2333 26.3C10.1 26.2778 9.96667 26.2444 9.83333 26.2C6.83333 25.2 4.44444 23.3502 2.66667 20.6507C0.888889 17.9511 0 15.0453 0 11.9333V5.63333C0 5.07778 0.161333 4.57778 0.484 4.13333C0.806667 3.68889 1.22311 3.36667 1.73333 3.16667L9.73333 0.166667C10.0444 0.0555556 10.3556 0 10.6667 0C10.9778 0 11.2889 0.0555556 11.6 0.166667L19.6 3.16667C20.1111 3.36667 20.528 3.68889 20.8507 4.13333C21.1733 4.57778 21.3342 5.07778 21.3333 5.63333V11.9333C21.3333 15.0444 20.4444 17.9502 18.6667 20.6507C16.8889 23.3511 14.5 25.2009 11.5 26.2C11.3667 26.2444 11.2333 26.2778 11.1 26.3C10.9667 26.3222 10.8222 26.3333 10.6667 26.3333Z" fill="white"/>
</svg>
