<svg width="16" height="16" viewBox="0 0 16 16" fill="none" xmlns="http://www.w3.org/2000/svg">
<path d="M4.00022 13.4335C3.23766 13.4335 2.586 13.163 2.04522 12.6221C1.50433 12.0814 1.23389 11.4297 1.23389 10.6671V5.33381C1.23389 4.57125 1.50433 3.91892 2.04522 3.37681C2.586 2.83459 3.23766 2.56348 4.00022 2.56348H12.0002C12.7628 2.56348 13.4151 2.83459 13.9572 3.37681C14.4994 3.91892 14.7706 4.57125 14.7706 5.33381V10.6671C14.7706 11.4297 14.4994 12.0814 13.9572 12.6221C13.4151 13.163 12.7628 13.4335 12.0002 13.4335H4.00022ZM4.09989 5.46064H11.9206C12.2481 5.46064 12.5575 5.51198 12.8487 5.61464C13.1401 5.71731 13.4008 5.86309 13.6311 6.05198V5.33381C13.6311 4.87781 13.4733 4.49198 13.1577 4.17631C12.8421 3.86075 12.4562 3.70298 12.0002 3.70298H4.00022C3.54422 3.70298 3.15839 3.86075 2.84272 4.17631C2.52716 4.49198 2.36939 4.87781 2.36939 5.33381V6.05998C2.60228 5.86842 2.86572 5.72064 3.15972 5.61664C3.45361 5.51264 3.767 5.46064 4.09989 5.46064ZM2.49122 7.84281L10.2937 9.72364C10.3822 9.74853 10.4727 9.75131 10.5652 9.73198C10.6579 9.71264 10.7373 9.67253 10.8036 9.61164L13.3746 7.45414C13.2328 7.19592 13.0328 6.98903 12.7746 6.83348C12.5163 6.67792 12.2317 6.60014 11.9206 6.60014H4.09989C3.71366 6.60014 3.37189 6.71759 3.07455 6.95248C2.77722 7.18736 2.58278 7.48414 2.49122 7.84281Z" fill="white"/>
</svg>
