<svg width="16" height="16" viewBox="0 0 16 16" fill="none" xmlns="http://www.w3.org/2000/svg">
<path d="M2.36939 13.4335C2.06272 13.4335 1.79683 13.3209 1.57172 13.0956C1.3465 12.8705 1.23389 12.6046 1.23389 12.298V3.70298C1.23389 3.3952 1.3465 3.12836 1.57172 2.90248C1.79683 2.67648 2.06272 2.56348 2.36939 2.56348H13.6311C13.9388 2.56348 14.2057 2.67648 14.4316 2.90248C14.6576 3.12836 14.7706 3.3952 14.7706 3.70298V12.298C14.7706 12.6046 14.6576 12.8705 14.4316 13.0956C14.2057 13.3209 13.9388 13.4335 13.6311 13.4335H2.36939ZM2.36939 12.298H13.6311V5.16681H2.36939V12.298Z" fill="white"/>
</svg>
